<?xml version="1.0" encoding="UTF-8" standalone="no"?>
<!DOCTYPE svg PUBLIC "-//W3C//DTD SVG 1.1//EN"
 "http://www.w3.org/Graphics/SVG/1.1/DTD/svg11.dtd">
<!-- Generated by graphviz version 2.40.1 (20161225.0304)
 -->
<!-- Title: %3 Pages: 1 -->
<svg width="280pt" height="188pt"
 viewBox="0.00 0.00 279.74 188.00" xmlns="http://www.w3.org/2000/svg" xmlns:xlink="http://www.w3.org/1999/xlink">
<g id="graph0" class="graph" transform="scale(1 1) rotate(0) translate(4 184)">
<title>%3</title>
<polygon fill="#ffffff" stroke="transparent" points="-4,4 -4,-184 275.7388,-184 275.7388,4 -4,4"/>
<!-- OR -->
<g id="node1" class="node">
<title>OR</title>
<ellipse fill="none" stroke="#000000" cx="186.3431" cy="-162" rx="27" ry="18"/>
<text text-anchor="middle" x="186.3431" y="-158.3" font-family="Times,serif" font-size="14.00" fill="#000000">OR</text>
</g>
<!-- AND -->
<g id="node2" class="node">
<title>AND</title>
<ellipse fill="none" stroke="#000000" cx="149.3431" cy="-90" rx="29.795" ry="18"/>
<text text-anchor="middle" x="149.3431" y="-86.3" font-family="Times,serif" font-size="14.00" fill="#000000">AND</text>
</g>
<!-- OR&#45;&#45;AND -->
<g id="edge1" class="edge">
<title>OR&#45;&#45;AND</title>
<path fill="none" stroke="#000000" d="M177.5747,-144.937C171.762,-133.626 164.1576,-118.8282 158.3057,-107.4407"/>
</g>
<!-- 1=1 -->
<g id="node5" class="node">
<title>1=1</title>
<ellipse fill="none" stroke="#000000" cx="224.3431" cy="-90" rx="27" ry="18"/>
<text text-anchor="middle" x="224.3431" y="-86.3" font-family="Times,serif" font-size="14.00" fill="#000000">1=1</text>
</g>
<!-- OR&#45;&#45;1=1 -->
<g id="edge4" class="edge">
<title>OR&#45;&#45;1=1</title>
<path fill="none" stroke="#000000" d="M195.3486,-144.937C201.3183,-133.626 209.1282,-118.8282 215.1383,-107.4407"/>
</g>
<!-- username=natas15 -->
<g id="node3" class="node">
<title>username=natas15</title>
<ellipse fill="none" stroke="#000000" cx="77.3431" cy="-18" rx="77.1866" ry="18"/>
<text text-anchor="middle" x="77.3431" y="-14.3" font-family="Times,serif" font-size="14.00" fill="#000000">username=natas15</text>
</g>
<!-- AND&#45;&#45;username=natas15 -->
<g id="edge2" class="edge">
<title>AND&#45;&#45;username=natas15</title>
<path fill="none" stroke="#000000" d="M133.7202,-74.3771C122.3051,-62.962 106.8144,-47.4713 94.9592,-35.6161"/>
</g>
<!-- password= -->
<g id="node4" class="node">
<title>password=</title>
<ellipse fill="none" stroke="#000000" cx="222.3431" cy="-18" rx="49.2915" ry="18"/>
<text text-anchor="middle" x="222.3431" y="-14.3" font-family="Times,serif" font-size="14.00" fill="#000000">password=</text>
</g>
<!-- AND&#45;&#45;password= -->
<g id="edge3" class="edge">
<title>AND&#45;&#45;password=</title>
<path fill="none" stroke="#000000" d="M165.1831,-74.3771C176.9244,-62.7966 192.9186,-47.0214 205.0027,-35.1029"/>
</g>
</g>
</svg>
